# xmcd CD database file
#
# Track frame offsets:
#	150
#	29400
#	48705
#	78285
#	97260
#	135092
#	161019
#	171519
#	197619
#	211053
#	225528
#	249838
#
# Disc length: 3543 seconds
#
# Revision: 0
# Processed by: cddbd v1.5.2PL0 Copyright (c) Steve Scherf et al.
# Submitted via: CDex 1.51
#
DISCID=980dd50c
DTITLE=Premuda Grillini Dalla - Blues Explorations
DYEAR=2004
DGENRE=Jazz
TTITLE0=Turnaround
TTITLE1=Tears Inside
TTITLE2=Ramblin'
TTITLE3=Broadway Blues
TTITLE4=Follow Your Heart - Binky's Beam
TTITLE5=Better Git It In Your Soul
TTITLE6=Blues Exploration
TTITLE7=All Blues
TTITLE8=Quasi Blues
TTITLE9=Missouri Uncompromised
TTITLE10=Blues Connotation
TTITLE11=PGD Blues
EXTD=YEAR: 2004
EXTT0=
EXTT1=
EXTT2=
EXTT3=
EXTT4=
EXTT5=
EXTT6=
EXTT7=
EXTT8=
EXTT9=
EXTT10=
EXTT11=
PLAYORDER=
